<svg width="100" height="1024" viewBox="0 0 100 1024" fill="none" xmlns="http://www.w3.org/2000/svg">
<g opacity="0.4">
<rect width="4" height="4" fill="#38EDAC"/>
<rect x="6" width="4" height="4" fill="#38EDAC"/>
<rect x="12" width="4" height="4" fill="#38EDAC"/>
<rect x="18" width="4" height="4" fill="#38EDAC"/>
<rect x="24" width="4" height="4" fill="#38EDAC"/>
<rect x="30" width="4" height="4" fill="#38EDAC"/>
<rect x="36" width="4" height="4" fill="#38EDAC"/>
<rect x="42" width="4" height="4" fill="#38EDAC"/>
<rect x="48" width="4" height="4" fill="#38EDAC"/>
<rect x="54" width="4" height="4" fill="#38EDAC"/>
<rect x="60" width="4" height="4" fill="#38EDAC"/>
<rect x="66" width="4" height="4" fill="#38EDAC"/>
<rect x="72" width="4" height="4" fill="#38EDAC"/>
<rect x="78" width="4" height="4" fill="#38EDAC"/>
<rect x="84" width="4" height="4" fill="#38EDAC"/>
<rect x="90" width="4" height="4" fill="#38EDAC"/>
<rect x="96" width="4" height="4" fill="#38EDAC"/>
<rect y="28" width="4" height="4" fill="#38EDAC"/>
<rect x="6" y="28" width="4" height="4" fill="#38EDAC"/>
<rect x="12" y="28" width="4" height="4" fill="#38EDAC"/>
<rect x="18" y="28" width="4" height="4" fill="#38EDAC"/>
<rect x="24" y="28" width="4" height="4" fill="#38EDAC"/>
<rect x="30" y="28" width="4" height="4" fill="#38EDAC"/>
<rect x="36" y="28" width="4" height="4" fill="#38EDAC"/>
<rect y="56" width="4" height="4" fill="#38EDAC"/>
<rect x="6" y="56" width="4" height="4" fill="#38EDAC"/>
<rect x="12" y="56" width="4" height="4" fill="#38EDAC"/>
<rect x="18" y="56" width="4" height="4" fill="#38EDAC"/>
<rect x="24" y="56" width="4" height="4" fill="#38EDAC"/>
<rect x="30" y="56" width="4" height="4" fill="#38EDAC"/>
<rect x="36" y="56" width="4" height="4" fill="#38EDAC"/>
<rect y="84" width="4" height="4" fill="#38EDAC"/>
<rect x="6" y="84" width="4" height="4" fill="#38EDAC"/>
<rect x="12" y="84" width="4" height="4" fill="#38EDAC"/>
<rect x="18" y="84" width="4" height="4" fill="#38EDAC"/>
<rect x="24" y="84" width="4" height="4" fill="#38EDAC"/>
<rect x="30" y="84" width="4" height="4" fill="#38EDAC"/>
<rect x="36" y="84" width="4" height="4" fill="#38EDAC"/>
<rect y="112" width="4" height="4" fill="#38EDAC"/>
<rect x="6" y="112" width="4" height="4" fill="#38EDAC"/>
<rect x="12" y="112" width="4" height="4" fill="#38EDAC"/>
<rect x="18" y="112" width="4" height="4" fill="#38EDAC"/>
<rect x="24" y="112" width="4" height="4" fill="#38EDAC"/>
<rect x="30" y="112" width="4" height="4" fill="#38EDAC"/>
<rect x="36" y="112" width="4" height="4" fill="#38EDAC"/>
<rect y="140" width="4" height="4" fill="#38EDAC"/>
<rect x="6" y="140" width="4" height="4" fill="#38EDAC"/>
<rect x="12" y="140" width="4" height="4" fill="#38EDAC"/>
<rect x="18" y="140" width="4" height="4" fill="#38EDAC"/>
<rect x="24" y="140" width="4" height="4" fill="#38EDAC"/>
<rect x="30" y="140" width="4" height="4" fill="#38EDAC"/>
<rect x="36" y="140" width="4" height="4" fill="#38EDAC"/>
<rect x="42" y="140" width="4" height="4" fill="#38EDAC"/>
<rect x="48" y="140" width="4" height="4" fill="#38EDAC"/>
<rect x="54" y="140" width="4" height="4" fill="#38EDAC"/>
<rect x="60" y="140" width="4" height="4" fill="#38EDAC"/>
<rect x="66" y="140" width="4" height="4" fill="#38EDAC"/>
<rect x="72" y="140" width="4" height="4" fill="#38EDAC"/>
<rect x="78" y="140" width="4" height="4" fill="#38EDAC"/>
<rect x="84" y="140" width="4" height="4" fill="#38EDAC"/>
<rect x="90" y="140" width="4" height="4" fill="#38EDAC"/>
<rect x="96" y="140" width="4" height="4" fill="#38EDAC"/>
<rect y="168" width="4" height="4" fill="#38EDAC"/>
<rect x="6" y="168" width="4" height="4" fill="#38EDAC"/>
<rect x="12" y="168" width="4" height="4" fill="#38EDAC"/>
<rect x="18" y="168" width="4" height="4" fill="#38EDAC"/>
<rect x="24" y="168" width="4" height="4" fill="#38EDAC"/>
<rect x="30" y="168" width="4" height="4" fill="#38EDAC"/>
<rect x="36" y="168" width="4" height="4" fill="#38EDAC"/>
<rect y="196" width="4" height="4" fill="#38EDAC"/>
<rect x="6" y="196" width="4" height="4" fill="#38EDAC"/>
<rect x="12" y="196" width="4" height="4" fill="#38EDAC"/>
<rect x="18" y="196" width="4" height="4" fill="#38EDAC"/>
<rect x="24" y="196" width="4" height="4" fill="#38EDAC"/>
<rect x="30" y="196" width="4" height="4" fill="#38EDAC"/>
<rect x="36" y="196" width="4" height="4" fill="#38EDAC"/>
<rect y="224" width="4" height="4" fill="#38EDAC"/>
<rect x="6" y="224" width="4" height="4" fill="#38EDAC"/>
<rect x="12" y="224" width="4" height="4" fill="#38EDAC"/>
<rect x="18" y="224" width="4" height="4" fill="#38EDAC"/>
<rect x="24" y="224" width="4" height="4" fill="#38EDAC"/>
<rect x="30" y="224" width="4" height="4" fill="#38EDAC"/>
<rect x="36" y="224" width="4" height="4" fill="#38EDAC"/>
<rect y="252" width="4" height="4" fill="#38EDAC"/>
<rect x="6" y="252" width="4" height="4" fill="#38EDAC"/>
<rect x="12" y="252" width="4" height="4" fill="#38EDAC"/>
<rect x="18" y="252" width="4" height="4" fill="#38EDAC"/>
<rect x="24" y="252" width="4" height="4" fill="#38EDAC"/>
<rect x="30" y="252" width="4" height="4" fill="#38EDAC"/>
<rect x="36" y="252" width="4" height="4" fill="#38EDAC"/>
<rect y="280" width="4" height="4" fill="#38EDAC"/>
<rect x="6" y="280" width="4" height="4" fill="#38EDAC"/>
<rect x="12" y="280" width="4" height="4" fill="#38EDAC"/>
<rect x="18" y="280" width="4" height="4" fill="#38EDAC"/>
<rect x="24" y="280" width="4" height="4" fill="#38EDAC"/>
<rect x="30" y="280" width="4" height="4" fill="#38EDAC"/>
<rect x="36" y="280" width="4" height="4" fill="#38EDAC"/>
<rect x="42" y="280" width="4" height="4" fill="#38EDAC"/>
<rect x="48" y="280" width="4" height="4" fill="#38EDAC"/>
<rect x="54" y="280" width="4" height="4" fill="#38EDAC"/>
<rect x="60" y="280" width="4" height="4" fill="#38EDAC"/>
<rect x="66" y="280" width="4" height="4" fill="#38EDAC"/>
<rect x="72" y="280" width="4" height="4" fill="#38EDAC"/>
<rect x="78" y="280" width="4" height="4" fill="#38EDAC"/>
<rect x="84" y="280" width="4" height="4" fill="#38EDAC"/>
<rect x="90" y="280" width="4" height="4" fill="#38EDAC"/>
<rect x="96" y="280" width="4" height="4" fill="#38EDAC"/>
<rect y="308" width="4" height="4" fill="#38EDAC"/>
<rect x="6" y="308" width="4" height="4" fill="#38EDAC"/>
<rect x="12" y="308" width="4" height="4" fill="#38EDAC"/>
<rect x="18" y="308" width="4" height="4" fill="#38EDAC"/>
<rect x="24" y="308" width="4" height="4" fill="#38EDAC"/>
<rect x="30" y="308" width="4" height="4" fill="#38EDAC"/>
<rect x="36" y="308" width="4" height="4" fill="#38EDAC"/>
<rect y="336" width="4" height="4" fill="#38EDAC"/>
<rect x="6" y="336" width="4" height="4" fill="#38EDAC"/>
<rect x="12" y="336" width="4" height="4" fill="#38EDAC"/>
<rect x="18" y="336" width="4" height="4" fill="#38EDAC"/>
<rect x="24" y="336" width="4" height="4" fill="#38EDAC"/>
<rect x="30" y="336" width="4" height="4" fill="#38EDAC"/>
<rect x="36" y="336" width="4" height="4" fill="#38EDAC"/>
<rect y="364" width="4" height="4" fill="#38EDAC"/>
<rect x="6" y="364" width="4" height="4" fill="#38EDAC"/>
<rect x="12" y="364" width="4" height="4" fill="#38EDAC"/>
<rect x="18" y="364" width="4" height="4" fill="#38EDAC"/>
<rect x="24" y="364" width="4" height="4" fill="#38EDAC"/>
<rect x="30" y="364" width="4" height="4" fill="#38EDAC"/>
<rect x="36" y="364" width="4" height="4" fill="#38EDAC"/>
<rect y="392" width="4" height="4" fill="#38EDAC"/>
<rect x="6" y="392" width="4" height="4" fill="#38EDAC"/>
<rect x="12" y="392" width="4" height="4" fill="#38EDAC"/>
<rect x="18" y="392" width="4" height="4" fill="#38EDAC"/>
<rect x="24" y="392" width="4" height="4" fill="#38EDAC"/>
<rect x="30" y="392" width="4" height="4" fill="#38EDAC"/>
<rect x="36" y="392" width="4" height="4" fill="#38EDAC"/>
<rect y="420" width="4" height="4" fill="#38EDAC"/>
<rect x="6" y="420" width="4" height="4" fill="#38EDAC"/>
<rect x="12" y="420" width="4" height="4" fill="#38EDAC"/>
<rect x="18" y="420" width="4" height="4" fill="#38EDAC"/>
<rect x="24" y="420" width="4" height="4" fill="#38EDAC"/>
<rect x="30" y="420" width="4" height="4" fill="#38EDAC"/>
<rect x="36" y="420" width="4" height="4" fill="#38EDAC"/>
<rect x="42" y="420" width="4" height="4" fill="#38EDAC"/>
<rect x="48" y="420" width="4" height="4" fill="#38EDAC"/>
<rect x="54" y="420" width="4" height="4" fill="#38EDAC"/>
<rect x="60" y="420" width="4" height="4" fill="#38EDAC"/>
<rect x="66" y="420" width="4" height="4" fill="#38EDAC"/>
<rect x="72" y="420" width="4" height="4" fill="#38EDAC"/>
<rect x="78" y="420" width="4" height="4" fill="#38EDAC"/>
<rect x="84" y="420" width="4" height="4" fill="#38EDAC"/>
<rect x="90" y="420" width="4" height="4" fill="#38EDAC"/>
<rect x="96" y="420" width="4" height="4" fill="#38EDAC"/>
<rect y="448" width="4" height="4" fill="#38EDAC"/>
<rect x="6" y="448" width="4" height="4" fill="#38EDAC"/>
<rect x="12" y="448" width="4" height="4" fill="#38EDAC"/>
<rect x="18" y="448" width="4" height="4" fill="#38EDAC"/>
<rect x="24" y="448" width="4" height="4" fill="#38EDAC"/>
<rect x="30" y="448" width="4" height="4" fill="#38EDAC"/>
<rect x="36" y="448" width="4" height="4" fill="#38EDAC"/>
<rect y="476" width="4" height="4" fill="#38EDAC"/>
<rect x="6" y="476" width="4" height="4" fill="#38EDAC"/>
<rect x="12" y="476" width="4" height="4" fill="#38EDAC"/>
<rect x="18" y="476" width="4" height="4" fill="#38EDAC"/>
<rect x="24" y="476" width="4" height="4" fill="#38EDAC"/>
<rect x="30" y="476" width="4" height="4" fill="#38EDAC"/>
<rect x="36" y="476" width="4" height="4" fill="#38EDAC"/>
<rect y="504" width="4" height="4" fill="#38EDAC"/>
<rect x="6" y="504" width="4" height="4" fill="#38EDAC"/>
<rect x="12" y="504" width="4" height="4" fill="#38EDAC"/>
<rect x="18" y="504" width="4" height="4" fill="#38EDAC"/>
<rect x="24" y="504" width="4" height="4" fill="#38EDAC"/>
<rect x="30" y="504" width="4" height="4" fill="#38EDAC"/>
<rect x="36" y="504" width="4" height="4" fill="#38EDAC"/>
<rect y="532" width="4" height="4" fill="#38EDAC"/>
<rect x="6" y="532" width="4" height="4" fill="#38EDAC"/>
<rect x="12" y="532" width="4" height="4" fill="#38EDAC"/>
<rect x="18" y="532" width="4" height="4" fill="#38EDAC"/>
<rect x="24" y="532" width="4" height="4" fill="#38EDAC"/>
<rect x="30" y="532" width="4" height="4" fill="#38EDAC"/>
<rect x="36" y="532" width="4" height="4" fill="#38EDAC"/>
<rect y="560" width="4" height="4" fill="#38EDAC"/>
<rect x="6" y="560" width="4" height="4" fill="#38EDAC"/>
<rect x="12" y="560" width="4" height="4" fill="#38EDAC"/>
<rect x="18" y="560" width="4" height="4" fill="#38EDAC"/>
<rect x="24" y="560" width="4" height="4" fill="#38EDAC"/>
<rect x="30" y="560" width="4" height="4" fill="#38EDAC"/>
<rect x="36" y="560" width="4" height="4" fill="#38EDAC"/>
<rect x="42" y="560" width="4" height="4" fill="#38EDAC"/>
<rect x="48" y="560" width="4" height="4" fill="#38EDAC"/>
<rect x="54" y="560" width="4" height="4" fill="#38EDAC"/>
<rect x="60" y="560" width="4" height="4" fill="#38EDAC"/>
<rect x="66" y="560" width="4" height="4" fill="#38EDAC"/>
<rect x="72" y="560" width="4" height="4" fill="#38EDAC"/>
<rect x="78" y="560" width="4" height="4" fill="#38EDAC"/>
<rect x="84" y="560" width="4" height="4" fill="#38EDAC"/>
<rect x="90" y="560" width="4" height="4" fill="#38EDAC"/>
<rect x="96" y="560" width="4" height="4" fill="#38EDAC"/>
<rect y="588" width="4" height="4" fill="#38EDAC"/>
<rect x="6" y="588" width="4" height="4" fill="#38EDAC"/>
<rect x="12" y="588" width="4" height="4" fill="#38EDAC"/>
<rect x="18" y="588" width="4" height="4" fill="#38EDAC"/>
<rect x="24" y="588" width="4" height="4" fill="#38EDAC"/>
<rect x="30" y="588" width="4" height="4" fill="#38EDAC"/>
<rect x="36" y="588" width="4" height="4" fill="#38EDAC"/>
<rect y="616" width="4" height="4" fill="#38EDAC"/>
<rect x="6" y="616" width="4" height="4" fill="#38EDAC"/>
<rect x="12" y="616" width="4" height="4" fill="#38EDAC"/>
<rect x="18" y="616" width="4" height="4" fill="#38EDAC"/>
<rect x="24" y="616" width="4" height="4" fill="#38EDAC"/>
<rect x="30" y="616" width="4" height="4" fill="#38EDAC"/>
<rect x="36" y="616" width="4" height="4" fill="#38EDAC"/>
<rect y="644" width="4" height="4" fill="#38EDAC"/>
<rect x="6" y="644" width="4" height="4" fill="#38EDAC"/>
<rect x="12" y="644" width="4" height="4" fill="#38EDAC"/>
<rect x="18" y="644" width="4" height="4" fill="#38EDAC"/>
<rect x="24" y="644" width="4" height="4" fill="#38EDAC"/>
<rect x="30" y="644" width="4" height="4" fill="#38EDAC"/>
<rect x="36" y="644" width="4" height="4" fill="#38EDAC"/>
<rect y="672" width="4" height="4" fill="#38EDAC"/>
<rect x="6" y="672" width="4" height="4" fill="#38EDAC"/>
<rect x="12" y="672" width="4" height="4" fill="#38EDAC"/>
<rect x="18" y="672" width="4" height="4" fill="#38EDAC"/>
<rect x="24" y="672" width="4" height="4" fill="#38EDAC"/>
<rect x="30" y="672" width="4" height="4" fill="#38EDAC"/>
<rect x="36" y="672" width="4" height="4" fill="#38EDAC"/>
<rect y="700" width="4" height="4" fill="#38EDAC"/>
<rect x="6" y="700" width="4" height="4" fill="#38EDAC"/>
<rect x="12" y="700" width="4" height="4" fill="#38EDAC"/>
<rect x="18" y="700" width="4" height="4" fill="#38EDAC"/>
<rect x="24" y="700" width="4" height="4" fill="#38EDAC"/>
<rect x="30" y="700" width="4" height="4" fill="#38EDAC"/>
<rect x="36" y="700" width="4" height="4" fill="#38EDAC"/>
<rect x="42" y="700" width="4" height="4" fill="#38EDAC"/>
<rect x="48" y="700" width="4" height="4" fill="#38EDAC"/>
<rect x="54" y="700" width="4" height="4" fill="#38EDAC"/>
<rect x="60" y="700" width="4" height="4" fill="#38EDAC"/>
<rect x="66" y="700" width="4" height="4" fill="#38EDAC"/>
<rect x="72" y="700" width="4" height="4" fill="#38EDAC"/>
<rect x="78" y="700" width="4" height="4" fill="#38EDAC"/>
<rect x="84" y="700" width="4" height="4" fill="#38EDAC"/>
<rect x="90" y="700" width="4" height="4" fill="#38EDAC"/>
<rect x="96" y="700" width="4" height="4" fill="#38EDAC"/>
<rect y="728" width="4" height="4" fill="#38EDAC"/>
<rect x="6" y="728" width="4" height="4" fill="#38EDAC"/>
<rect x="12" y="728" width="4" height="4" fill="#38EDAC"/>
<rect x="18" y="728" width="4" height="4" fill="#38EDAC"/>
<rect x="24" y="728" width="4" height="4" fill="#38EDAC"/>
<rect x="30" y="728" width="4" height="4" fill="#38EDAC"/>
<rect x="36" y="728" width="4" height="4" fill="#38EDAC"/>
<rect y="756" width="4" height="4" fill="#38EDAC"/>
<rect x="6" y="756" width="4" height="4" fill="#38EDAC"/>
<rect x="12" y="756" width="4" height="4" fill="#38EDAC"/>
<rect x="18" y="756" width="4" height="4" fill="#38EDAC"/>
<rect x="24" y="756" width="4" height="4" fill="#38EDAC"/>
<rect x="30" y="756" width="4" height="4" fill="#38EDAC"/>
<rect x="36" y="756" width="4" height="4" fill="#38EDAC"/>
<rect y="784" width="4" height="4" fill="#38EDAC"/>
<rect x="6" y="784" width="4" height="4" fill="#38EDAC"/>
<rect x="12" y="784" width="4" height="4" fill="#38EDAC"/>
<rect x="18" y="784" width="4" height="4" fill="#38EDAC"/>
<rect x="24" y="784" width="4" height="4" fill="#38EDAC"/>
<rect x="30" y="784" width="4" height="4" fill="#38EDAC"/>
<rect x="36" y="784" width="4" height="4" fill="#38EDAC"/>
<rect y="812" width="4" height="4" fill="#38EDAC"/>
<rect x="6" y="812" width="4" height="4" fill="#38EDAC"/>
<rect x="12" y="812" width="4" height="4" fill="#38EDAC"/>
<rect x="18" y="812" width="4" height="4" fill="#38EDAC"/>
<rect x="24" y="812" width="4" height="4" fill="#38EDAC"/>
<rect x="30" y="812" width="4" height="4" fill="#38EDAC"/>
<rect x="36" y="812" width="4" height="4" fill="#38EDAC"/>
<rect y="840" width="4" height="4" fill="#38EDAC"/>
<rect x="6" y="840" width="4" height="4" fill="#38EDAC"/>
<rect x="12" y="840" width="4" height="4" fill="#38EDAC"/>
<rect x="18" y="840" width="4" height="4" fill="#38EDAC"/>
<rect x="24" y="840" width="4" height="4" fill="#38EDAC"/>
<rect x="30" y="840" width="4" height="4" fill="#38EDAC"/>
<rect x="36" y="840" width="4" height="4" fill="#38EDAC"/>
<rect x="42" y="840" width="4" height="4" fill="#38EDAC"/>
<rect x="48" y="840" width="4" height="4" fill="#38EDAC"/>
<rect x="54" y="840" width="4" height="4" fill="#38EDAC"/>
<rect x="60" y="840" width="4" height="4" fill="#38EDAC"/>
<rect x="66" y="840" width="4" height="4" fill="#38EDAC"/>
<rect x="72" y="840" width="4" height="4" fill="#38EDAC"/>
<rect x="78" y="840" width="4" height="4" fill="#38EDAC"/>
<rect x="84" y="840" width="4" height="4" fill="#38EDAC"/>
<rect x="90" y="840" width="4" height="4" fill="#38EDAC"/>
<rect x="96" y="840" width="4" height="4" fill="#38EDAC"/>
<rect y="868" width="4" height="4" fill="#38EDAC"/>
<rect x="6" y="868" width="4" height="4" fill="#38EDAC"/>
<rect x="12" y="868" width="4" height="4" fill="#38EDAC"/>
<rect x="18" y="868" width="4" height="4" fill="#38EDAC"/>
<rect x="24" y="868" width="4" height="4" fill="#38EDAC"/>
<rect x="30" y="868" width="4" height="4" fill="#38EDAC"/>
<rect x="36" y="868" width="4" height="4" fill="#38EDAC"/>
<rect y="896" width="4" height="4" fill="#38EDAC"/>
<rect x="6" y="896" width="4" height="4" fill="#38EDAC"/>
<rect x="12" y="896" width="4" height="4" fill="#38EDAC"/>
<rect x="18" y="896" width="4" height="4" fill="#38EDAC"/>
<rect x="24" y="896" width="4" height="4" fill="#38EDAC"/>
<rect x="30" y="896" width="4" height="4" fill="#38EDAC"/>
<rect x="36" y="896" width="4" height="4" fill="#38EDAC"/>
<rect y="924" width="4" height="4" fill="#38EDAC"/>
<rect x="6" y="924" width="4" height="4" fill="#38EDAC"/>
<rect x="12" y="924" width="4" height="4" fill="#38EDAC"/>
<rect x="18" y="924" width="4" height="4" fill="#38EDAC"/>
<rect x="24" y="924" width="4" height="4" fill="#38EDAC"/>
<rect x="30" y="924" width="4" height="4" fill="#38EDAC"/>
<rect x="36" y="924" width="4" height="4" fill="#38EDAC"/>
<rect y="952" width="4" height="4" fill="#38EDAC"/>
<rect x="6" y="952" width="4" height="4" fill="#38EDAC"/>
<rect x="12" y="952" width="4" height="4" fill="#38EDAC"/>
<rect x="18" y="952" width="4" height="4" fill="#38EDAC"/>
<rect x="24" y="952" width="4" height="4" fill="#38EDAC"/>
<rect x="30" y="952" width="4" height="4" fill="#38EDAC"/>
<rect x="36" y="952" width="4" height="4" fill="#38EDAC"/>
<rect y="980" width="4" height="4" fill="#38EDAC"/>
<rect x="6" y="980" width="4" height="4" fill="#38EDAC"/>
<rect x="12" y="980" width="4" height="4" fill="#38EDAC"/>
<rect x="18" y="980" width="4" height="4" fill="#38EDAC"/>
<rect x="24" y="980" width="4" height="4" fill="#38EDAC"/>
<rect x="30" y="980" width="4" height="4" fill="#38EDAC"/>
<rect x="36" y="980" width="4" height="4" fill="#38EDAC"/>
<rect x="42" y="980" width="4" height="4" fill="#38EDAC"/>
<rect x="48" y="980" width="4" height="4" fill="#38EDAC"/>
<rect x="54" y="980" width="4" height="4" fill="#38EDAC"/>
<rect x="60" y="980" width="4" height="4" fill="#38EDAC"/>
<rect x="66" y="980" width="4" height="4" fill="#38EDAC"/>
<rect x="72" y="980" width="4" height="4" fill="#38EDAC"/>
<rect x="78" y="980" width="4" height="4" fill="#38EDAC"/>
<rect x="84" y="980" width="4" height="4" fill="#38EDAC"/>
<rect x="90" y="980" width="4" height="4" fill="#38EDAC"/>
<rect x="96" y="980" width="4" height="4" fill="#38EDAC"/>
<rect y="1008" width="4" height="4" fill="#38EDAC"/>
<rect x="6" y="1008" width="4" height="4" fill="#38EDAC"/>
<rect x="12" y="1008" width="4" height="4" fill="#38EDAC"/>
<rect x="18" y="1008" width="4" height="4" fill="#38EDAC"/>
<rect x="24" y="1008" width="4" height="4" fill="#38EDAC"/>
<rect x="30" y="1008" width="4" height="4" fill="#38EDAC"/>
<rect x="36" y="1008" width="4" height="4" fill="#38EDAC"/>
</g>
</svg>
