<svg width="58" height="67" viewBox="0 0 58 67" fill="none" xmlns="http://www.w3.org/2000/svg">
<path d="M49.625 25H45.5V16.75C45.5 7.59766 38.0234 0.25 29 0.25C19.8477 0.25 12.5 7.72656 12.5 16.75V25H8.375C3.73438 25 0.125 28.7383 0.125 33.25V58C0.125 62.5117 3.73438 66.25 8.375 66.25H49.625C54.1367 66.25 57.875 62.5117 57.875 58V33.25C57.875 28.7383 54.1367 25 49.625 25ZM18.6875 16.75C18.6875 11.0781 23.1992 6.4375 29 6.4375C34.6719 6.4375 39.3125 11.0781 39.3125 16.75V25H18.6875V16.75ZM51.6875 58C51.6875 59.1602 50.6562 60.0625 49.625 60.0625H8.375C7.21484 60.0625 6.3125 59.1602 6.3125 58V33.25C6.3125 32.2188 7.21484 31.1875 8.375 31.1875H49.625C50.6562 31.1875 51.6875 32.2188 51.6875 33.25V58Z" fill="black" fill-opacity="0.7"/>
</svg>
