<svg width="34" height="49" viewBox="0 0 34 49" fill="none" xmlns="http://www.w3.org/2000/svg">
<path d="M31.45 18.8C30.1375 18.8 29.2 19.8312 29.2 21.05V24.8C29.2 31.8312 23.1062 37.4562 15.9812 36.8C9.69995 36.1437 5.19995 30.6125 5.19995 24.3312V21.05C5.19995 19.8312 4.1687 18.8 2.94995 18.8C1.63745 18.8 0.699951 19.8312 0.699951 21.05V24.05C0.699951 32.3937 6.69995 39.8937 14.95 41.0187V44.3H10.3562C9.13745 44.3 8.19995 45.3312 8.19995 46.55C8.19995 47.675 9.13745 48.8 10.3562 48.8H23.8562C25.1687 48.8 26.2 47.8625 26.2 46.55C26.2 45.3312 25.1687 44.3 23.95 44.3H19.45V41.2062C27.4187 40.0812 33.7 33.1437 33.7 24.8V21.05C33.7 19.8312 32.6687 18.8 31.45 18.8ZM17.2 33.8C22.1687 33.8 26.2 29.7687 26.2 24.8V9.79999C26.2 4.92499 22.1687 0.799988 17.2 0.799988C12.2312 0.799988 8.19995 4.83124 8.19995 9.79999V24.8C8.19995 29.7687 12.2312 33.8 17.2 33.8ZM12.7 9.79999C12.7 7.36249 14.6687 5.29999 17.2 5.29999C19.6375 5.29999 21.7 7.36249 21.7 9.79999V24.8C21.7 27.3312 19.6375 29.3 17.2 29.3C14.6687 29.3 12.7 27.3312 12.7 24.8V9.79999Z" fill="#141E29"/>
</svg>
