<svg width="36" height="37" viewBox="0 0 36 37" fill="none" xmlns="http://www.w3.org/2000/svg">
<path d="M22.7812 7.8125L27 9.5L28.6875 13.7188C28.8281 13.9297 29.0391 14 29.25 14C29.4609 14 29.6016 13.9297 29.7422 13.7188L31.5 9.5L35.6484 7.8125C35.8594 7.67188 36 7.46094 36 7.25C36 7.03906 35.8594 6.89844 35.6484 6.75781L31.5 5L29.7422 0.851562C29.6016 0.640625 29.4609 0.5 29.25 0.5C29.0391 0.5 28.8281 0.640625 28.6875 0.851562L27 5L22.7812 6.75781C22.5703 6.89844 22.5 7.03906 22.5 7.25C22.5 7.46094 22.5703 7.67188 22.7812 7.8125ZM35.6484 29.2578L31.5 27.5L29.7422 23.3516C29.6016 23.1406 29.4609 23 29.25 23C29.0391 23 28.8281 23.1406 28.6875 23.3516L27 27.5L22.7812 29.2578C22.5703 29.3984 22.5 29.5391 22.5 29.75C22.5 29.9609 22.5703 30.1719 22.7812 30.3125L27 32L28.6875 36.2188C28.8281 36.4297 29.0391 36.5 29.25 36.5C29.4609 36.5 29.6016 36.4297 29.7422 36.2188L31.5 32L35.6484 30.3125C35.8594 30.1719 36 29.9609 36 29.75C36 29.5391 35.8594 29.3984 35.6484 29.2578ZM27 18.5C27 17.8672 26.5781 17.3047 26.0156 17.0234L18.6328 13.3672L14.9766 5.98438C14.4141 4.78906 12.5156 4.78906 11.9531 5.98438L8.29688 13.3672L0.914062 17.0234C0.351562 17.3047 0 17.8672 0 18.5C0 19.2031 0.351562 19.7656 0.914062 20.0469L8.29688 23.7031L11.9531 31.0859C12.2344 31.6484 12.7969 32 13.5 32C14.1328 32 14.6953 31.6484 14.9766 31.0859L18.6328 23.7031L26.0156 20.0469C26.5781 19.7656 27 19.2031 27 18.5ZM16.6641 20.9609C16.3125 21.1016 16.0312 21.3828 15.8906 21.7344L13.5 26.5859L11.0391 21.7344C10.8984 21.3828 10.6172 21.1016 10.2656 20.9609L5.41406 18.5L10.2656 16.1094C10.6172 15.9688 10.8984 15.6875 11.0391 15.3359L13.5 10.4844L15.8906 15.3359C16.0312 15.6875 16.3125 15.9688 16.6641 16.1094L21.5156 18.5L16.6641 20.9609Z" fill="black"/>
</svg>
