<svg width="51" height="47" viewBox="0 0 51 47" fill="none" xmlns="http://www.w3.org/2000/svg">
<path d="M38.9375 0.75C32.5586 0.75 27.4375 5.96094 27.4375 12.25V18H5.875C2.64062 18 0.125 20.6055 0.125 23.75V41C0.125 44.2344 2.64062 46.75 5.875 46.75H34.625C37.7695 46.75 40.375 44.2344 40.375 41V23.75C40.375 20.6055 37.7695 18 34.625 18H31.75V12.25C31.75 8.29688 34.8945 5.0625 38.9375 5.0625C42.8906 5.0625 46.125 8.29688 46.125 12.25V18.7188C46.125 19.9766 47.0234 20.875 48.2812 20.875C49.4492 20.875 50.4375 19.9766 50.4375 18.7188V12.25C50.4375 5.96094 45.2266 0.75 38.9375 0.75ZM34.625 22.3125C35.3438 22.3125 36.0625 23.0312 36.0625 23.75V41C36.0625 41.8086 35.3438 42.4375 34.625 42.4375H5.875C5.06641 42.4375 4.4375 41.8086 4.4375 41V23.75C4.4375 23.0312 5.06641 22.3125 5.875 22.3125H34.625ZM20.25 36.6875C21.418 36.6875 22.4062 35.7891 22.4062 34.5312V30.2188C22.4062 29.0508 21.418 28.0625 20.25 28.0625C18.9922 28.0625 18.0938 29.0508 18.0938 30.2188V34.5312C18.0938 35.7891 18.9922 36.6875 20.25 36.6875Z" fill="white"/>
</svg>
